<svg version="1.1" xmlns="http://www.w3.org/2000/svg" viewBox="0 0 130 56" id="r1XgSGuVv8f" xmlns:xlink="http://www.w3.org/1999/xlink" xmlns:svgjs="http://svgjs.com/svgjs">
    <style type="text/css">
        @-webkit-keyframes B16gHMOVvIz_Animation{0%{opacity: 1;transform-box: fill-box;-webkit-transform-origin: 50% 50%;transform-origin: 50% 50%;}50%{opacity: 0.5;transform-box: fill-box;-webkit-transform-origin: 50% 50%;transform-origin: 50% 50%;}73.33%{opacity: 0.1;transform-box: fill-box;-webkit-transform-origin: 50% 50%;transform-origin: 50% 50%;}83.33%{opacity: 0.8;transform-box: fill-box;-webkit-transform-origin: 50% 50%;transform-origin: 50% 50%;}93.33%{opacity: 1;transform-box: fill-box;-webkit-transform-origin: 50% 50%;transform-origin: 50% 50%;}100%{opacity: 1;transform-box: fill-box;-webkit-transform-origin: 50% 50%;transform-origin: 50% 50%;}}@keyframes B16gHMOVvIz_Animation{0%{opacity: 1;transform-box: fill-box;-webkit-transform-origin: 50% 50%;transform-origin: 50% 50%;}50%{opacity: 0.5;transform-box: fill-box;-webkit-transform-origin: 50% 50%;transform-origin: 50% 50%;}73.33%{opacity: 0.1;transform-box: fill-box;-webkit-transform-origin: 50% 50%;transform-origin: 50% 50%;}83.33%{opacity: 0.8;transform-box: fill-box;-webkit-transform-origin: 50% 50%;transform-origin: 50% 50%;}93.33%{opacity: 1;transform-box: fill-box;-webkit-transform-origin: 50% 50%;transform-origin: 50% 50%;}100%{opacity: 1;transform-box: fill-box;-webkit-transform-origin: 50% 50%;transform-origin: 50% 50%;}}@-webkit-keyframes BkjlSMu4D8M_Animation{0%{opacity: 1;transform-box: fill-box;-webkit-transform-origin: 50% 50%;transform-origin: 50% 50%;}33.33%{opacity: 0.5;transform-box: fill-box;-webkit-transform-origin: 50% 50%;transform-origin: 50% 50%;}53.33%{opacity: 0.1;transform-box: fill-box;-webkit-transform-origin: 50% 50%;transform-origin: 50% 50%;}63.33%{opacity: 0.5;transform-box: fill-box;-webkit-transform-origin: 50% 50%;transform-origin: 50% 50%;}76.67%{opacity: 1;transform-box: fill-box;-webkit-transform-origin: 50% 50%;transform-origin: 50% 50%;}100%{opacity: 1;transform-box: fill-box;-webkit-transform-origin: 50% 50%;transform-origin: 50% 50%;}}@keyframes BkjlSMu4D8M_Animation{0%{opacity: 1;transform-box: fill-box;-webkit-transform-origin: 50% 50%;transform-origin: 50% 50%;}33.33%{opacity: 0.5;transform-box: fill-box;-webkit-transform-origin: 50% 50%;transform-origin: 50% 50%;}53.33%{opacity: 0.1;transform-box: fill-box;-webkit-transform-origin: 50% 50%;transform-origin: 50% 50%;}63.33%{opacity: 0.5;transform-box: fill-box;-webkit-transform-origin: 50% 50%;transform-origin: 50% 50%;}76.67%{opacity: 1;transform-box: fill-box;-webkit-transform-origin: 50% 50%;transform-origin: 50% 50%;}100%{opacity: 1;transform-box: fill-box;-webkit-transform-origin: 50% 50%;transform-origin: 50% 50%;}}@-webkit-keyframes S12eSMu4vUz_Animation{0%{opacity: 1;transform-box: fill-box;-webkit-transform-origin: 50% 50%;transform-origin: 50% 50%;}7.78%{opacity: 0.5;transform-box: fill-box;-webkit-transform-origin: 50% 50%;transform-origin: 50% 50%;}20%{opacity: 0.2;transform-box: fill-box;-webkit-transform-origin: 50% 50%;transform-origin: 50% 50%;}33.33%{opacity: 0;transform-box: fill-box;-webkit-transform-origin: 50% 50%;transform-origin: 50% 50%;}43.33%{opacity: 0.2;transform-box: fill-box;-webkit-transform-origin: 50% 50%;transform-origin: 50% 50%;}56.67%{opacity: 0.5;transform-box: fill-box;-webkit-transform-origin: 50% 50%;transform-origin: 50% 50%;}66.67%{opacity: 0.8;transform-box: fill-box;-webkit-transform-origin: 50% 50%;transform-origin: 50% 50%;}78.89%{opacity: 1;transform-box: fill-box;-webkit-transform-origin: 50% 50%;transform-origin: 50% 50%;}100%{opacity: 1;transform-box: fill-box;-webkit-transform-origin: 50% 50%;transform-origin: 50% 50%;}}@keyframes S12eSMu4vUz_Animation{0%{opacity: 1;transform-box: fill-box;-webkit-transform-origin: 50% 50%;transform-origin: 50% 50%;}7.78%{opacity: 0.5;transform-box: fill-box;-webkit-transform-origin: 50% 50%;transform-origin: 50% 50%;}20%{opacity: 0.2;transform-box: fill-box;-webkit-transform-origin: 50% 50%;transform-origin: 50% 50%;}33.33%{opacity: 0;transform-box: fill-box;-webkit-transform-origin: 50% 50%;transform-origin: 50% 50%;}43.33%{opacity: 0.2;transform-box: fill-box;-webkit-transform-origin: 50% 50%;transform-origin: 50% 50%;}56.67%{opacity: 0.5;transform-box: fill-box;-webkit-transform-origin: 50% 50%;transform-origin: 50% 50%;}66.67%{opacity: 0.8;transform-box: fill-box;-webkit-transform-origin: 50% 50%;transform-origin: 50% 50%;}78.89%{opacity: 1;transform-box: fill-box;-webkit-transform-origin: 50% 50%;transform-origin: 50% 50%;}100%{opacity: 1;transform-box: fill-box;-webkit-transform-origin: 50% 50%;transform-origin: 50% 50%;}}@-webkit-keyframes HJUeSf_EDIz_Animation{32.22%{opacity: 1;transform-box: fill-box;-webkit-transform-origin: 50% 50%;transform-origin: 50% 50%;}46.67%{opacity: 0.8;transform-box: fill-box;-webkit-transform-origin: 50% 50%;transform-origin: 50% 50%;}63.33%{opacity: 0.2;transform-box: fill-box;-webkit-transform-origin: 50% 50%;transform-origin: 50% 50%;}73.33%{opacity: 0.1;transform-box: fill-box;-webkit-transform-origin: 50% 50%;transform-origin: 50% 50%;}80%{opacity: 0.2;transform-box: fill-box;-webkit-transform-origin: 50% 50%;transform-origin: 50% 50%;}90%{opacity: 0.8;transform-box: fill-box;-webkit-transform-origin: 50% 50%;transform-origin: 50% 50%;}98.89%{opacity: 1;transform-box: fill-box;-webkit-transform-origin: 50% 50%;transform-origin: 50% 50%;}0%{opacity: 1;transform-box: fill-box;-webkit-transform-origin: 50% 50%;transform-origin: 50% 50%;}100%{opacity: 1;transform-box: fill-box;-webkit-transform-origin: 50% 50%;transform-origin: 50% 50%;}}@keyframes HJUeSf_EDIz_Animation{32.22%{opacity: 1;transform-box: fill-box;-webkit-transform-origin: 50% 50%;transform-origin: 50% 50%;}46.67%{opacity: 0.8;transform-box: fill-box;-webkit-transform-origin: 50% 50%;transform-origin: 50% 50%;}63.33%{opacity: 0.2;transform-box: fill-box;-webkit-transform-origin: 50% 50%;transform-origin: 50% 50%;}73.33%{opacity: 0.1;transform-box: fill-box;-webkit-transform-origin: 50% 50%;transform-origin: 50% 50%;}80%{opacity: 0.2;transform-box: fill-box;-webkit-transform-origin: 50% 50%;transform-origin: 50% 50%;}90%{opacity: 0.8;transform-box: fill-box;-webkit-transform-origin: 50% 50%;transform-origin: 50% 50%;}98.89%{opacity: 1;transform-box: fill-box;-webkit-transform-origin: 50% 50%;transform-origin: 50% 50%;}0%{opacity: 1;transform-box: fill-box;-webkit-transform-origin: 50% 50%;transform-origin: 50% 50%;}100%{opacity: 1;transform-box: fill-box;-webkit-transform-origin: 50% 50%;transform-origin: 50% 50%;}}@-webkit-keyframes BkvxBfu4DUf_Animation{0%{opacity: 1;transform-box: fill-box;-webkit-transform-origin: 50% 50%;transform-origin: 50% 50%;}8.89%{opacity: 0.6;transform-box: fill-box;-webkit-transform-origin: 50% 50%;transform-origin: 50% 50%;}20%{opacity: 0.5;transform-box: fill-box;-webkit-transform-origin: 50% 50%;transform-origin: 50% 50%;}40%{opacity: 1;transform-box: fill-box;-webkit-transform-origin: 50% 50%;transform-origin: 50% 50%;}60%{opacity: 0.8;transform-box: fill-box;-webkit-transform-origin: 50% 50%;transform-origin: 50% 50%;}76.67%{opacity: 0.5;transform-box: fill-box;-webkit-transform-origin: 50% 50%;transform-origin: 50% 50%;}96.67%{opacity: 1;transform-box: fill-box;-webkit-transform-origin: 50% 50%;transform-origin: 50% 50%;}100%{opacity: 1;transform-box: fill-box;-webkit-transform-origin: 50% 50%;transform-origin: 50% 50%;}}@keyframes BkvxBfu4DUf_Animation{0%{opacity: 1;transform-box: fill-box;-webkit-transform-origin: 50% 50%;transform-origin: 50% 50%;}8.89%{opacity: 0.6;transform-box: fill-box;-webkit-transform-origin: 50% 50%;transform-origin: 50% 50%;}20%{opacity: 0.5;transform-box: fill-box;-webkit-transform-origin: 50% 50%;transform-origin: 50% 50%;}40%{opacity: 1;transform-box: fill-box;-webkit-transform-origin: 50% 50%;transform-origin: 50% 50%;}60%{opacity: 0.8;transform-box: fill-box;-webkit-transform-origin: 50% 50%;transform-origin: 50% 50%;}76.67%{opacity: 0.5;transform-box: fill-box;-webkit-transform-origin: 50% 50%;transform-origin: 50% 50%;}96.67%{opacity: 1;transform-box: fill-box;-webkit-transform-origin: 50% 50%;transform-origin: 50% 50%;}100%{opacity: 1;transform-box: fill-box;-webkit-transform-origin: 50% 50%;transform-origin: 50% 50%;}}@-webkit-keyframes BydxrGuNwLz_Animation{0%{opacity: 1;transform-box: fill-box;-webkit-transform-origin: 50% 50%;transform-origin: 50% 50%;}46.67%{opacity: 0.8;transform-box: fill-box;-webkit-transform-origin: 50% 50%;transform-origin: 50% 50%;}70%{opacity: 0.2;transform-box: fill-box;-webkit-transform-origin: 50% 50%;transform-origin: 50% 50%;}93.33%{opacity: 1;transform-box: fill-box;-webkit-transform-origin: 50% 50%;transform-origin: 50% 50%;}100%{opacity: 1;transform-box: fill-box;-webkit-transform-origin: 50% 50%;transform-origin: 50% 50%;}}@keyframes BydxrGuNwLz_Animation{0%{opacity: 1;transform-box: fill-box;-webkit-transform-origin: 50% 50%;transform-origin: 50% 50%;}46.67%{opacity: 0.8;transform-box: fill-box;-webkit-transform-origin: 50% 50%;transform-origin: 50% 50%;}70%{opacity: 0.2;transform-box: fill-box;-webkit-transform-origin: 50% 50%;transform-origin: 50% 50%;}93.33%{opacity: 1;transform-box: fill-box;-webkit-transform-origin: 50% 50%;transform-origin: 50% 50%;}100%{opacity: 1;transform-box: fill-box;-webkit-transform-origin: 50% 50%;transform-origin: 50% 50%;}}@-webkit-keyframes rkrxBMuND8M_Animation{13.33%{opacity: 1;transform-box: fill-box;-webkit-transform-origin: 50% 50%;transform-origin: 50% 50%;}26.67%{opacity: 0.8;transform-box: fill-box;-webkit-transform-origin: 50% 50%;transform-origin: 50% 50%;}50%{opacity: 0.2;transform-box: fill-box;-webkit-transform-origin: 50% 50%;transform-origin: 50% 50%;}70%{opacity: 0.1;transform-box: fill-box;-webkit-transform-origin: 50% 50%;transform-origin: 50% 50%;}83.33%{opacity: 0.8;transform-box: fill-box;-webkit-transform-origin: 50% 50%;transform-origin: 50% 50%;}96.67%{opacity: 1;transform-box: fill-box;-webkit-transform-origin: 50% 50%;transform-origin: 50% 50%;}0%{opacity: 1;transform-box: fill-box;-webkit-transform-origin: 50% 50%;transform-origin: 50% 50%;}100%{opacity: 1;transform-box: fill-box;-webkit-transform-origin: 50% 50%;transform-origin: 50% 50%;}}@keyframes rkrxBMuND8M_Animation{13.33%{opacity: 1;transform-box: fill-box;-webkit-transform-origin: 50% 50%;transform-origin: 50% 50%;}26.67%{opacity: 0.8;transform-box: fill-box;-webkit-transform-origin: 50% 50%;transform-origin: 50% 50%;}50%{opacity: 0.2;transform-box: fill-box;-webkit-transform-origin: 50% 50%;transform-origin: 50% 50%;}70%{opacity: 0.1;transform-box: fill-box;-webkit-transform-origin: 50% 50%;transform-origin: 50% 50%;}83.33%{opacity: 0.8;transform-box: fill-box;-webkit-transform-origin: 50% 50%;transform-origin: 50% 50%;}96.67%{opacity: 1;transform-box: fill-box;-webkit-transform-origin: 50% 50%;transform-origin: 50% 50%;}0%{opacity: 1;transform-box: fill-box;-webkit-transform-origin: 50% 50%;transform-origin: 50% 50%;}100%{opacity: 1;transform-box: fill-box;-webkit-transform-origin: 50% 50%;transform-origin: 50% 50%;}}@-webkit-keyframes BkKxHzuEPIM_Animation{0%{opacity: 1;transform-box: fill-box;-webkit-transform-origin: 50% 50%;transform-origin: 50% 50%;}15.56%{opacity: 0.5;transform-box: fill-box;-webkit-transform-origin: 50% 50%;transform-origin: 50% 50%;}30%{opacity: 0;transform-box: fill-box;-webkit-transform-origin: 50% 50%;transform-origin: 50% 50%;}43.33%{opacity: 0.2;transform-box: fill-box;-webkit-transform-origin: 50% 50%;transform-origin: 50% 50%;}60%{opacity: 0.8;transform-box: fill-box;-webkit-transform-origin: 50% 50%;transform-origin: 50% 50%;}74.44%{opacity: 1;transform-box: fill-box;-webkit-transform-origin: 50% 50%;transform-origin: 50% 50%;}100%{opacity: 1;transform-box: fill-box;-webkit-transform-origin: 50% 50%;transform-origin: 50% 50%;}}@keyframes BkKxHzuEPIM_Animation{0%{opacity: 1;transform-box: fill-box;-webkit-transform-origin: 50% 50%;transform-origin: 50% 50%;}15.56%{opacity: 0.5;transform-box: fill-box;-webkit-transform-origin: 50% 50%;transform-origin: 50% 50%;}30%{opacity: 0;transform-box: fill-box;-webkit-transform-origin: 50% 50%;transform-origin: 50% 50%;}43.33%{opacity: 0.2;transform-box: fill-box;-webkit-transform-origin: 50% 50%;transform-origin: 50% 50%;}60%{opacity: 0.8;transform-box: fill-box;-webkit-transform-origin: 50% 50%;transform-origin: 50% 50%;}74.44%{opacity: 1;transform-box: fill-box;-webkit-transform-origin: 50% 50%;transform-origin: 50% 50%;}100%{opacity: 1;transform-box: fill-box;-webkit-transform-origin: 50% 50%;transform-origin: 50% 50%;}}@-webkit-keyframes H19gBMd4PLz_Animation{0%{opacity: 1;transform-box: fill-box;-webkit-transform-origin: 50% 50%;transform-origin: 50% 50%;}10%{opacity: 0.8;transform-box: fill-box;-webkit-transform-origin: 50% 50%;transform-origin: 50% 50%;}23.33%{opacity: 0.5;transform-box: fill-box;-webkit-transform-origin: 50% 50%;transform-origin: 50% 50%;}36.67%{opacity: 0.2;transform-box: fill-box;-webkit-transform-origin: 50% 50%;transform-origin: 50% 50%;}53.33%{opacity: 0.1;transform-box: fill-box;-webkit-transform-origin: 50% 50%;transform-origin: 50% 50%;}66.67%{opacity: 0.5;transform-box: fill-box;-webkit-transform-origin: 50% 50%;transform-origin: 50% 50%;}83.33%{opacity: 1;transform-box: fill-box;-webkit-transform-origin: 50% 50%;transform-origin: 50% 50%;}100%{opacity: 1;transform-box: fill-box;-webkit-transform-origin: 50% 50%;transform-origin: 50% 50%;}}@keyframes H19gBMd4PLz_Animation{0%{opacity: 1;transform-box: fill-box;-webkit-transform-origin: 50% 50%;transform-origin: 50% 50%;}10%{opacity: 0.8;transform-box: fill-box;-webkit-transform-origin: 50% 50%;transform-origin: 50% 50%;}23.33%{opacity: 0.5;transform-box: fill-box;-webkit-transform-origin: 50% 50%;transform-origin: 50% 50%;}36.67%{opacity: 0.2;transform-box: fill-box;-webkit-transform-origin: 50% 50%;transform-origin: 50% 50%;}53.33%{opacity: 0.1;transform-box: fill-box;-webkit-transform-origin: 50% 50%;transform-origin: 50% 50%;}66.67%{opacity: 0.5;transform-box: fill-box;-webkit-transform-origin: 50% 50%;transform-origin: 50% 50%;}83.33%{opacity: 1;transform-box: fill-box;-webkit-transform-origin: 50% 50%;transform-origin: 50% 50%;}100%{opacity: 1;transform-box: fill-box;-webkit-transform-origin: 50% 50%;transform-origin: 50% 50%;}}#r1XgSGuVv8f *{-webkit-animation-duration: 3s;animation-duration: 3s;-webkit-animation-iteration-count: infinite;animation-iteration-count: infinite;-webkit-animation-timing-function: cubic-bezier(0, 0, 1, 1);animation-timing-function: cubic-bezier(0, 0, 1, 1);}#S1VeBz_4PUf{fill: #fff;}#rkrxBMuND8M{fill: #ffc20e;-webkit-animation-name: rkrxBMuND8M_Animation;animation-name: rkrxBMuND8M_Animation;}#HJUeSf_EDIz{fill: #ffc20e;-webkit-animation-name: HJUeSf_EDIz_Animation;animation-name: HJUeSf_EDIz_Animation;}#BkvxBfu4DUf{fill: #ffc20e;-webkit-animation-name: BkvxBfu4DUf_Animation;animation-name: BkvxBfu4DUf_Animation;}#BydxrGuNwLz{fill: #ffc20e;-webkit-animation-name: BydxrGuNwLz_Animation;animation-name: BydxrGuNwLz_Animation;}#BkKxHzuEPIM{fill: #ffc20e;-webkit-animation-name: BkKxHzuEPIM_Animation;animation-name: BkKxHzuEPIM_Animation;}#H19gBMd4PLz{fill: #ffc20e;-webkit-animation-name: H19gBMd4PLz_Animation;animation-name: H19gBMd4PLz_Animation;}#BkjlSMu4D8M{fill: #ffc20e;-webkit-animation-name: BkjlSMu4D8M_Animation;animation-name: BkjlSMu4D8M_Animation;}#S12eSMu4vUz{fill: #ffc20e;-webkit-animation-name: S12eSMu4vUz_Animation;animation-name: S12eSMu4vUz_Animation;}#B16gHMOVvIz{fill: #ffc20e;-webkit-animation-name: B16gHMOVvIz_Animation;animation-name: B16gHMOVvIz_Animation;}#ryRlHfdEv8z{fill: #fff;}#SJ1WrM_EPUM{fill: #fff;}#S1eZSGuNv8G{fill: #fff;}#Bk-bBfu4vIG{fill: #fff;}#ryzZSfOEwIf{fill: #fff;}#rJmWrGdVDUf{fill: #fff;}#S1V-BfO4w8z{fill: #fff;}#rkH-Sz_EwUM{fill: #fff;}#rJUZHfdNwIM{fill: #fff;}#SJv-SzdVPUM{fill: #fff;}
    </style>
    <path d="m 43.671347,56 c 1.419657,0 2.433697,-0.74363 2.433697,-2.028081 l 0,0 c 0,-1.149246 -0.74363,-1.622465 -2.095684,-1.960479 -1.149246,-0.27041 -1.419656,-0.405616 -1.419656,-0.878835 l 0,0 c 0,-0.338013 0.27041,-0.540821 0.878835,-0.540821 0.540821,0 1.149246,0.27041 1.690067,0.676027 l 0.74363,-1.081644 c -0.676027,-0.540821 -1.487259,-0.811232 -2.433697,-0.811232 -1.352054,0 -2.298492,0.811232 -2.298492,1.960478 l 0,0 c 0,1.284452 0.878835,1.690068 2.163286,2.028082 1.081644,0.27041 1.352054,0.473218 1.352054,0.811232 l 0,0 c 0,0.405616 -0.338013,0.608424 -0.946437,0.608424 -0.74363,0 -1.352055,-0.338013 -1.960479,-0.811232 l -0.878835,1.01404 C 41.643266,55.661986 42.657306,56 43.671347,56 m 3.447738,-5.678627 1.487259,0 0,-1.284452 -1.487259,0 0,1.284452 z m 0.0676,5.611024 1.419657,0 0,-5.070203 -1.419657,0 0,5.070203 z m 2.636506,0 1.419657,0 0,-2.839313 c 0,-0.676027 0.338013,-1.014041 0.878835,-1.014041 0.540822,0 0.878835,0.338014 0.878835,1.014041 l 0,2.839313 1.419657,0 0,-3.24493 c 0,-1.149245 -0.608425,-1.892875 -1.690068,-1.892875 -0.74363,0 -1.149246,0.405616 -1.487259,0.811232 l 0,-0.74363 -1.419657,0 0,5.070203 z m 8.179929,0.0676 c 1.014041,0 1.554862,-0.405616 2.095684,-0.946438 l -0.811232,-0.878835 c -0.338014,0.338014 -0.676028,0.540822 -1.149246,0.540822 -0.811233,0 -1.284452,-0.608425 -1.284452,-1.419657 l 0,0 c 0,-0.74363 0.540822,-1.352054 1.216849,-1.352054 0.540821,0 0.811232,0.202808 1.149246,0.540821 l 0.878835,-0.946437 c -0.473219,-0.540822 -1.081643,-0.878836 -2.028081,-0.878836 -1.554862,0 -2.636506,1.216849 -2.636506,2.636506 l 0,0 c -0.0676,1.554862 1.081644,2.704108 2.568903,2.704108 m 5.137806,0 c 0.946437,0 1.622465,-0.338014 2.095683,-0.946438 l -0.811232,-0.74363 c -0.405616,0.338014 -0.74363,0.540822 -1.216849,0.540822 -0.608424,0 -1.081643,-0.338013 -1.216848,-1.014041 l 3.51534,0 c 0,-0.135205 0,-0.27041 0,-0.405616 0,-1.419657 -0.743629,-2.771711 -2.433697,-2.771711 -1.48726,0 -2.5013,1.216849 -2.5013,2.636506 l 0,0 c -0.0676,1.690067 1.081643,2.704108 2.568903,2.704108 m -1.216849,-3.042122 c 0.135205,-0.676027 0.473219,-1.081643 1.081643,-1.081643 0.608425,0 0.946438,0.405616 1.081643,1.081643 l -2.163286,0 z m 7.368695,2.974519 1.419656,0 0,-6.625065 -1.01404,0 -1.892876,0.540822 0.270411,1.216849 1.149246,-0.270411 0,5.137805 z m 5.137805,0.0676 c 1.48726,0 2.568903,-0.74363 2.568903,-1.960478 l 0,0 c 0,-0.811233 -0.405616,-1.216849 -1.081643,-1.554863 0.540821,-0.338013 0.811232,-0.743629 0.811232,-1.419656 l 0,0 c 0,-1.014041 -0.946438,-1.825273 -2.298492,-1.825273 -1.419657,0 -2.298492,0.811232 -2.298492,1.825273 l 0,0 c 0,0.676027 0.338014,1.149246 0.811233,1.419656 -0.676027,0.338014 -1.081644,0.811233 -1.081644,1.622465 l 0,0 c 0.0676,1.149246 1.149246,1.892876 2.568903,1.892876 m 0,-3.98856 c -0.540821,0 -0.946438,-0.338013 -0.946438,-0.811232 l 0,0 c 0,-0.405616 0.338014,-0.74363 0.946438,-0.74363 0.608425,0 0.946438,0.338014 0.946438,0.74363 l 0,0 c 0,0.473219 -0.338013,0.811232 -0.946438,0.811232 m 0,2.771711 c -0.74363,0 -1.149246,-0.338013 -1.149246,-0.811232 l 0,0 c 0,-0.540822 0.473219,-0.811233 1.149246,-0.811233 0.676027,0 1.149246,0.270411 1.149246,0.811233 l 0,0 c 0,0.473219 -0.405616,0.811232 -1.149246,0.811232 m 5.678627,1.216849 c 1.892876,0 2.906917,-1.487259 2.906917,-3.582943 l 0,0 c 0,-1.284452 -0.338014,-2.028081 -0.811233,-2.5013 -0.473219,-0.473219 -1.01404,-0.74363 -1.892876,-0.74363 -1.487259,0 -2.5013,0.946438 -2.5013,2.298492 l 0,0 c 0,1.352054 0.946438,2.095684 2.366095,2.095684 0.540822,0 1.014041,-0.202808 1.352054,-0.473219 -0.0676,0.878835 -0.540821,1.487259 -1.352054,1.487259 -0.540822,0 -0.946438,-0.202808 -1.419657,-0.540821 l -0.743629,1.081643 c 0.473218,0.608424 1.149246,0.878835 2.095683,0.878835 m 0.270411,-3.515341 c -0.74363,0 -1.149246,-0.405616 -1.149246,-1.01404 l 0,0 c 0,-0.608425 0.405616,-1.014041 1.149246,-1.014041 0.74363,0 1.149246,0.405616 1.149246,1.014041 l 0,0 c 0,0.540821 -0.405616,1.01404 -1.149246,1.01404 m 5.881435,3.515341 c 1.892876,0 2.906917,-1.487259 2.906917,-3.582943 l 0,0 c 0,-1.284452 -0.338014,-2.028081 -0.811233,-2.5013 -0.473219,-0.473219 -1.01404,-0.74363 -1.892875,-0.74363 -1.48726,0 -2.5013,0.946438 -2.5013,2.298492 l 0,0 c 0,1.352054 0.946437,2.095684 2.366094,2.095684 0.540822,0 1.014041,-0.202808 1.352054,-0.473219 -0.0676,0.878835 -0.540821,1.487259 -1.352054,1.487259 -0.540821,0 -0.946438,-0.202808 -1.419657,-0.540821 l -0.743629,1.081643 c 0.473219,0.608424 1.149246,0.878835 2.095683,0.878835 m 0.270411,-3.515341 c -0.743629,0 -1.149246,-0.405616 -1.149246,-1.01404 l 0,0 c 0,-0.608425 0.405617,-1.014041 1.149246,-1.014041 0.74363,0 1.149246,0.405616 1.149246,1.014041 l 0,0 c 0,0.540821 -0.405616,1.01404 -1.149246,1.01404" id="S1VeBz_4PUf" class=""/>
    <path d="m 63.276131,18.615705 c 0,1.081643 -0.878835,1.960478 -1.960478,1.960478 -1.081644,0 -1.960479,-0.878835 -1.960479,-1.960478 0,-1.081644 0.878835,-1.960479 1.960479,-1.960479 1.081643,0 1.960478,0.878835 1.960478,1.960479" id="rkrxBMuND8M"/>
    <path d="m 71.929277,10.638586 c 0,1.081643 -0.878835,1.960478 -1.960478,1.960478 -1.081644,0 -1.960479,-0.878835 -1.960479,-1.960478 0,-1.0816443 0.878835,-1.9604793 1.960479,-1.9604793 1.081643,0.0676 1.960478,0.946438 1.960478,1.9604793" id="HJUeSf_EDIz"/>
    <path d="m 67.399896,4.7571497 c 0,2.636506 -2.298492,4.123765 -2.298492,4.123765 0,0 -2.298492,-1.487259 -2.298492,-4.123765 0,-2.636505 2.298492,-4.123765 2.298492,-4.123765 0,0 2.298492,1.419657 2.298492,4.123765" id="BkvxBfu4DUf"/>
    <path d="m 62.194488,10.030161 c 1.892875,1.892876 1.284451,4.529381 1.284451,4.529381 0,0 -2.636505,0.608425 -4.529381,-1.284451 -1.892876,-1.892876 -1.284451,-4.5293813 -1.284451,-4.5293813 0,0 2.636505,-0.540822 4.529381,1.2844513" id="BydxrGuNwLz"/>
    <path d="m 54.555382,13.139886 c 2.298492,1.352054 2.433698,4.056162 2.433698,4.056162 0,0 -2.433698,1.216849 -4.73219,-0.0676 -2.298492,-1.352054 -2.433697,-4.056162 -2.433697,-4.056162 0,0 2.5013,-1.216849 4.732189,0.0676" id="BkKxHzuEPIM"/>
    <path d="m 58.070723,21.25221 c 2.5013,0.878835 3.109724,3.582943 3.109724,3.582943 0,0 -2.163286,1.622465 -4.664586,0.74363 -2.5013,-0.878835 -3.109725,-3.582943 -3.109725,-3.582943 0,0 2.163287,-1.622465 4.664587,-0.74363" id="H19gBMd4PLz"/>
    <path d="m 69.968799,19.156526 c -1.149246,2.433698 -3.785752,2.771711 -3.785752,2.771711 0,0 -1.487259,-2.298492 -0.338013,-4.732189 1.081643,-2.433698 3.785751,-2.771711 3.785751,-2.771711 0,0 1.48726,2.298492 0.338014,4.732189" id="BkjlSMu4D8M"/>
    <path d="m 77.945918,17.128445 c -2.298492,1.352054 -4.732189,0.0676 -4.732189,0.0676 0,0 0.135205,-2.704108 2.433697,-4.056162 2.298492,-1.352054 4.732189,-0.0676 4.732189,-0.0676 0,0 -0.135205,2.704108 -2.433697,4.056162" id="S12eSMu4vUz"/>
    <path d="m 73.822153,25.578783 c -2.5013,0.878835 -4.664587,-0.74363 -4.664587,-0.74363 0,0 0.608425,-2.636505 3.109725,-3.582943 2.5013,-0.878835 4.664586,0.74363 4.664586,0.74363 0,0 -0.608424,2.636505 -3.109724,3.582943" id="B16gHMOVvIz"/>
    <path d="m 30.353614,33.353094 c -2.163286,0 -3.785751,1.690068 -3.785751,3.98856 0,2.230889 1.622465,3.988559 3.785751,3.988559 2.163287,0 3.718149,-1.690067 3.718149,-3.988559 0,-2.298492 -1.554862,-3.98856 -3.718149,-3.98856 m 0,11.762871 c -4.664586,0 -8.179927,-3.380136 -8.179927,-7.841914 0,-4.461779 3.515341,-7.841914 8.179927,-7.841914 4.664587,0 8.179927,3.380135 8.179927,7.841914 0,4.529381 -3.51534,7.841914 -8.179927,7.841914" id="ryRlHfdEv8z"/>
    <path d="m 66.99428,44.845554 -3.98856,0 c -0.135205,0 -0.202808,-0.0676 -0.202808,-0.202808 l 0,-14.602184 c 0,-0.135206 0.0676,-0.202808 0.202808,-0.202808 l 3.98856,0 c 0.135205,0 0.202808,0.0676 0.202808,0.202808 l 0,14.534581 c 0,0.135205 -0.0676,0.270411 -0.202808,0.270411" id="SJ1WrM_EPUM"/>
    <path d="m 91.398856,33.353094 c -2.163287,0 -3.785751,1.690068 -3.785751,3.98856 0,2.230889 1.622464,3.988559 3.785751,3.988559 2.163286,0 3.718149,-1.690067 3.718149,-3.988559 0,-2.298492 -1.554863,-3.98856 -3.718149,-3.98856 m 0,11.762871 c -4.664587,0 -8.179927,-3.380136 -8.179927,-7.841914 0,-4.461779 3.51534,-7.841914 8.179927,-7.841914 4.664587,0 8.179927,3.380135 8.179927,7.841914 0,4.529381 -3.51534,7.841914 -8.179927,7.841914" id="S1eZSGuNv8G"/>
    <path d="m 115.46542,44.845554 -3.92096,0 c -0.1352,0 -0.20281,-0.0676 -0.20281,-0.202808 l 0,-8.585544 c 0,-1.825273 -0.47322,-2.433697 -1.82527,-2.433697 -1.55486,0 -2.90692,1.014041 -3.38013,2.568903 -0.13521,0.473219 -0.20281,1.01404 -0.20281,1.75767 l 0,6.692668 c 0,0.135205 -0.0676,0.202808 -0.20281,0.202808 l -3.98856,0 c -0.13521,0 -0.20281,-0.0676 -0.20281,-0.202808 l 0,-14.602184 c 0,-0.135206 0.0676,-0.202808 0.20281,-0.202808 l 3.85335,0 c 0.13521,0 0.20281,0.0676 0.20281,0.202808 l 0,1.487259 c 0.81123,-0.878835 2.23089,-1.960478 4.59699,-1.960478 3.51534,0 5.34061,1.960478 5.34061,5.813832 l 0,9.329173 c -0.0676,0 -0.20281,0.135206 -0.27041,0.135206" id="Bk-bBfu4vIG"/>
    <path d="m 19.942798,44.845554 -3.98856,0 c -0.135205,0 -0.202808,-0.0676 -0.202808,-0.202808 0,-4.596984 -0.338013,-9.802392 -0.473219,-11.424857 -1.419657,1.892875 -2.771711,4.461778 -3.853354,6.963078 0,0.0676 -0.135205,0.135206 -0.202808,0.135206 l -2.2308894,0 c -0.067603,0 -0.1352054,-0.0676 -0.2028081,-0.135206 -1.0816432,-2.5013 -2.4336973,-5.070203 -3.8533541,-6.963078 -0.1352054,1.622465 -0.4732189,6.827873 -0.4732189,11.424857 0,0.135205 -0.067603,0.202808 -0.2028081,0.202808 l -4.05616229,0 C 0.0676027,44.845554 0,44.710348 0,44.642746 0,38.423297 0.47321893,30.24337 1.4872595,26.052002 c 0,-0.0676 0.1352054,-0.135205 0.2028081,-0.135205 l 3.1773271,0 c 0.067603,0 0.1352054,0 0.1352054,0.0676 2.0280811,2.298492 3.7857514,4.867395 5.0702029,7.436298 1.284451,-2.568903 3.042122,-5.137806 5.070203,-7.436298 0.0676,-0.0676 0.0676,-0.0676 0.135205,-0.0676 l 3.177327,0 c 0.0676,0 0.202808,0.0676 0.202808,0.135205 1.014041,4.191368 1.48726,12.371295 1.48726,18.590744 0,0.0676 -0.0676,0.202808 -0.202808,0.202808" id="ryzZSfOEwIf"/>
    <path d="m 44.820593,44.845554 -3.98856,0 c -0.135205,0 -0.202808,-0.0676 -0.202808,-0.202808 l 0,-14.602184 c 0,-0.135206 0.0676,-0.202808 0.202808,-0.202808 l 3.853354,0 c 0.135206,0 0.202809,0.0676 0.202809,0.202808 l 0,1.825273 c 0.946437,-1.352054 2.5013,-2.23089 4.056162,-2.23089 0.202808,0 0.405616,0 0.540821,0.0676 0.0676,0 0.202809,0.0676 0.202809,0.202808 l 0,3.920957 c 0,0.0676 0,0.135205 -0.0676,0.135205 -0.0676,0.0676 -0.135206,0.0676 -0.135206,0.0676 -0.0676,0 -0.338013,-0.0676 -0.676027,-0.0676 -1.284451,0 -2.839313,0.676028 -3.447738,2.636506 -0.202808,0.608424 -0.27041,1.284451 -0.27041,2.163286 l 0,5.813833 c -0.0676,0.135205 -0.135206,0.270411 -0.270411,0.270411" id="rJmWrGdVDUf"/>
    <path d="m 55.907436,44.845554 -3.988559,0 c -0.135206,0 -0.202808,-0.0676 -0.202808,-0.202808 l 0,-14.602184 c 0,-0.135206 0.0676,-0.202808 0.202808,-0.202808 l 3.853354,0 c 0.135205,0 0.202808,0.0676 0.202808,0.202808 l 0,1.825273 c 0.946438,-1.352054 2.5013,-2.23089 4.056162,-2.23089 0.202808,0 0.405616,0 0.540822,0.0676 0.0676,0 0.202808,0.0676 0.202808,0.202808 l 0,3.920957 c 0,0.0676 0,0.135205 -0.0676,0.135205 -0.0676,0.0676 -0.135205,0.0676 -0.202808,0.0676 -0.0676,0 -0.338013,-0.0676 -0.676027,-0.0676 -1.284451,0 -2.839313,0.676028 -3.447738,2.636506 -0.202808,0.608424 -0.270411,1.284451 -0.270411,2.163286 l 0,5.813833 c 0,0.135205 -0.0676,0.270411 -0.202808,0.270411" id="S1V-BfO4w8z"/>
    <path d="m 67.399896,25.849194 c 0,1.284451 -1.081643,2.366095 -2.366095,2.366095 -1.284451,0 -2.366094,-1.081644 -2.366094,-2.366095 0,-1.284451 1.081643,-2.366095 2.366094,-2.366095 1.284452,0.0676 2.366095,1.081644 2.366095,2.366095" id="rkH-Sz_EwUM"/>
    <path d="m 76.864275,35.448778 c -0.202809,-0.0676 -0.338014,-0.135205 -0.540822,-0.135205 -1.48726,-0.473219 -2.366095,-0.74363 -2.366095,-1.48726 l 0,-0.0676 c 0,-0.608424 0.676027,-0.946438 1.554862,-0.946438 1.014041,0 2.028082,0.338014 3.515341,1.081644 l 0,0 c 0,0 0.0676,0 0.0676,0 0.0676,0 0.135205,-0.0676 0.202808,-0.135206 l 1.554862,-2.771711 c 0,0 0,-0.0676 0,-0.0676 0,-0.0676 -0.0676,-0.135206 -0.135205,-0.202808 -1.690068,-0.878835 -3.312533,-1.419657 -5.205409,-1.419657 -3.650546,0 -5.949037,1.75767 -5.949037,4.664586 l 0,0.0676 c 0,2.839314 2.298491,3.98856 4.867394,4.664587 0.202808,0.0676 0.405616,0.135205 0.608425,0.202808 1.554862,0.473219 2.163286,0.811232 2.230889,1.554862 l 0,0.0676 c -0.0676,0.608424 -0.608425,0.878835 -1.622465,0.878835 -1.48726,0 -2.771711,-0.540822 -4.461779,-1.622465 l 0,0 c 0,0 -0.0676,0 -0.135205,0 -0.0676,0 -0.135205,0.0676 -0.135205,0.0676 l -1.757671,2.704108 c 0,0.0676 -0.0676,0.0676 -0.0676,0.135205 0,0.0676 0.0676,0.135206 0.0676,0.135206 2.028081,1.419656 3.853354,2.230889 6.151846,2.230889 3.98856,0 6.354655,-1.75767 6.354655,-4.799792 l 0,-0.135205 c 0,-2.771711 -2.433698,-3.98856 -4.799792,-4.664587" id="rJUZHfdNwIM"/>
    <path d="m 125.20021,35.516381 c -0.20281,-0.0676 -0.33802,-0.135206 -0.54082,-0.135206 -1.48726,-0.473219 -2.3661,-0.743629 -2.3661,-1.487259 l 0,-0.0676 c 0,-0.608424 0.67603,-0.946438 1.55486,-0.946438 1.01404,0 2.02809,0.338014 3.51534,1.081643 l 0,0 c 0,0 0.0676,0 0.0676,0 0.0676,0 0.1352,-0.0676 0.20281,-0.135205 l 1.55486,-2.771711 c 0,0 0,-0.0676 0,-0.0676 0,-0.0676 -0.0676,-0.135205 -0.13521,-0.202808 -1.69007,-0.878835 -3.31253,-1.419656 -5.20541,-1.419656 -3.65054,0 -5.94903,1.75767 -5.94903,4.664586 l 0,0.0676 c 0,2.839313 2.29849,3.988559 4.86739,4.664586 0.20281,0.0676 0.40562,0.135206 0.60842,0.202809 1.55487,0.473218 2.16329,0.811232 2.23089,1.554862 l 0,0.0676 c -0.0676,0.608425 -0.60842,0.878836 -1.62246,0.878836 -1.48726,0 -2.77171,-0.540822 -4.46178,-1.622465 l 0,0 c 0,0 -0.0676,0 -0.1352,0 -0.0676,0 -0.13521,0.0676 -0.13521,0.0676 l -1.75767,2.704109 c 0,0.0676 -0.0676,0.0676 -0.0676,0.135205 0,0.0676 0.0676,0.135205 0.0676,0.135205 2.02808,1.419657 3.85335,2.23089 6.15185,2.23089 3.98856,0 6.35465,-1.757671 6.35465,-4.799792 l 0,-0.0676 c 0,-2.839314 -2.36609,-3.98856 -4.79979,-4.732189" id="SJv-SzdVPUM"/>
</svg>